{"asset":{"generator":"3D Builder","version":"2.0"},"scene":0,"scenes":[{"nodes":[0,1]}],"nodes":[{"mesh":0,"matrix":[1,0,0,0,0,-1.1920928955078125E-7,-0.99999988079071045,0,0,0.99999988079071045,-1.1920928955078125E-7,0,-0.0011952273780480027,0.0018923199968412519,-0.47078901529312134,1]},{"mesh":1,"matrix":[1,0,0,0,0,-1.1920928955078125E-7,-0.99999988079071045,0,0,0.99999988079071045,-1.1920928955078125E-7,0,-0.0011952273780480027,0.0018923199968412519,-0.47078901529312134,1]}],"meshes":[{"primitives":[{"attributes":{"POSITION":0},"mode":4,"indices":23,"material":0},{"attributes":{"POSITION":1,"TEXCOORD_0":12},"mode":4,"indices":24,"material":1},{"attributes":{"POSITION":2,"TEXCOORD_0":13},"mode":4,"indices":25,"material":1},{"attributes":{"POSITION":3,"TEXCOORD_0":14},"mode":4,"indices":26,"material":1},{"attributes":{"POSITION":4,"TEXCOORD_0":15},"mode":4,"indices":27,"material":1},{"attributes":{"POSITION":5,"TEXCOORD_0":16},"mode":4,"indices":28,"material":1},{"attributes":{"POSITION":6,"TEXCOORD_0":17},"mode":4,"indices":29,"material":1},{"attributes":{"POSITION":7,"TEXCOORD_0":18},"mode":4,"indices":30,"material":1},{"attributes":{"POSITION":8,"TEXCOORD_0":19},"mode":4,"indices":31,"material":1},{"attributes":{"POSITION":9,"TEXCOORD_0":20},"mode":4,"indices":32,"material":1},{"attributes":{"POSITION":10,"TEXCOORD_0":21},"mode":4,"indices":33,"material":1},{"attributes":{"POSITION":11,"TEXCOORD_0":22},"mode":4,"indices":34,"material":1}]},{"primitives":[{"attributes":{"POSITION":35,"TEXCOORD_0":54},"mode":4,"indices":73,"material":2},{"attributes":{"POSITION":36,"TEXCOORD_0":55},"mode":4,"indices":74,"material":1},{"attributes":{"POSITION":37,"TEXCOORD_0":56},"mode":4,"indices":75,"material":1},{"attributes":{"POSITION":38,"TEXCOORD_0":57},"mode":4,"indices":76,"material":3},{"attributes":{"POSITION":39,"TEXCOORD_0":58},"mode":4,"indices":77,"material":3},{"attributes":{"POSITION":40,"TEXCOORD_0":59},"mode":4,"indices":78,"material":3},{"attributes":{"POSITION":41,"TEXCOORD_0":60},"mode":4,"indices":79,"material":3},{"attributes":{"POSITION":42,"TEXCOORD_0":61},"mode":4,"indices":80,"material":3},{"attributes":{"POSITION":43,"TEXCOORD_0":62},"mode":4,"indices":81,"material":3},{"attributes":{"POSITION":44,"TEXCOORD_0":63},"mode":4,"indices":82,"material":3},{"attributes":{"POSITION":45,"TEXCOORD_0":64},"mode":4,"indices":83,"material":3},{"attributes":{"POSITION":46,"TEXCOORD_0":65},"mode":4,"indices":84,"material":3},{"attributes":{"POSITION":47,"TEXCOORD_0":66},"mode":4,"indices":85,"material":3},{"attributes":{"POSITION":48,"TEXCOORD_0":67},"mode":4,"indices":86,"material":3},{"attributes":{"POSITION":49,"TEXCOORD_0":68},"mode":4,"indices":87,"material":3},{"attributes":{"POSITION":50,"TEXCOORD_0":69},"mode":4,"indices":88,"material":3},{"attributes":{"POSITION":51,"TEXCOORD_0":70},"mode":4,"indices":89,"material":3},{"attributes":{"POSITION":52,"TEXCOORD_0":71},"mode":4,"indices":90,"material":3},{"attributes":{"POSITION":53,"TEXCOORD_0":72},"mode":4,"indices":91,"material":3}]}],"materials":[{"name":"Metallic","pbrMetallicRoughness":{"baseColorFactor":[0.048171821981668472,0.063010029494762421,0.5972018837928772,1],"metallicFactor":1,"roughnessFactor":0},"alphaMode":"OPAQUE"},{"pbrMetallicRoughness":{"baseColorFactor":[1,1,1,1],"metallicFactor":0,"roughnessFactor":1,"baseColorTexture":{"index":0,"texCoord":0}},"alphaMode":"OPAQUE"},{"pbrMetallicRoughness":{"baseColorFactor":[1,1,1,1],"metallicFactor":1,"roughnessFactor":1,"baseColorTexture":{"index":1,"texCoord":0},"metallicRoughnessTexture":{"index":2,"texCoord":0}},"alphaMode":"OPAQUE"},{"pbrMetallicRoughness":{"baseColorFactor":[1,1,1,1],"metallicFactor":0,"roughnessFactor":1,"baseColorTexture":{"index":3,"texCoord":0}},"alphaMode":"OPAQUE"}],"textures":[{"source":0,"sampler":0},{"source":1,"sampler":0},{"source":2,"sampler":0},{"source":3,"sampler":0}],"images":[{"uri":"bd_flag.png"},{"uri":"texture_0_6195987693227547908.png"},{"uri":"texture_5_10685915185523300778.png"},{"uri":"texture_0.png"}],"samplers":[{"magFilter":9729,"wrapS":10497,"wrapT":10497}],"accessors":[{"bufferView":0,"byteOffset":0,"count":312,"componentType":5126,"type":"VEC3","min":[-0.176278218626976,-0.48705646395683289,-0.000596165657043457],"max":[-0.083710238337516785,-0.45931652188301086,0.0984298437833786]},{"bufferView":0,"byteOffset":3744,"count":16,"componentType":5126,"type":"VEC3","min":[-0.15304829180240631,-0.4861355721950531,0.076780885457992554],"max":[-0.10261374711990356,-0.48196718096733093,0.084179088473320007]},{"bufferView":0,"byteOffset":3936,"count":49,"componentType":5126,"type":"VEC3","min":[-0.17343489825725555,-0.48845455050468445,-0.000596165657043457],"max":[-0.087416067719459534,-0.4666847288608551,0.086394160985946655]},{"bufferView":0,"byteOffset":4524,"count":16,"componentType":5126,"type":"VEC3","min":[-0.16070164740085602,-0.488185316324234,0.086460933089256287],"max":[-0.094624951481819153,-0.48404416441917419,0.097529500722885132]},{"bufferView":0,"byteOffset":4716,"count":18,"componentType":5126,"type":"VEC3","min":[-0.147068053483963,-0.48957648873329163,0.0684739500284195],"max":[-0.084955543279647827,-0.48239096999168396,0.09545530378818512]},{"bufferView":0,"byteOffset":4932,"count":52,"componentType":5126,"type":"VEC3","min":[-0.1654844731092453,-0.48539420962333679,0.000371396541595459],"max":[-0.15191271901130676,-0.46278819441795349,0.080957725644111633]},{"bufferView":0,"byteOffset":5556,"count":8,"componentType":5126,"type":"VEC3","min":[-0.090651959180831909,-0.48501625657081604,0.065211832523345947],"max":[-0.086333423852920532,-0.48190721869468689,0.069715604186058044]},{"bufferView":0,"byteOffset":5652,"count":4,"componentType":5126,"type":"VEC3","min":[-0.15382370352745056,-0.48931381106376648,0.089451685547828674],"max":[-0.14657026529312134,-0.4875924289226532,0.093963995575904846]},{"bufferView":0,"byteOffset":5700,"count":30,"componentType":5126,"type":"VEC3","min":[-0.16651688516139984,-0.48821231722831726,0.0012380480766296387],"max":[-0.14486877620220184,-0.46993640065193176,0.085061356425285339]},{"bufferView":0,"byteOffset":6060,"count":46,"componentType":5126,"type":"VEC3","min":[-0.16896392405033112,-0.4896717369556427,0.0012380480766296387],"max":[-0.088637024164199829,-0.47141239047050476,0.089360699057579041]},{"bufferView":0,"byteOffset":6612,"count":44,"componentType":5126,"type":"VEC3","min":[-0.17179752886295319,-0.4896717369556427,0.0013147443532943726],"max":[-0.087149336934089661,-0.47147414088249207,0.092565819621086121]},{"bufferView":0,"byteOffset":7140,"count":28,"componentType":5126,"type":"VEC3","min":[-0.17434383928775787,-0.48901036381721497,0.0015779733657836914],"max":[-0.15295146405696869,-0.47004929184913635,0.092193678021430969]},{"bufferView":1,"byteOffset":0,"count":16,"componentType":5126,"type":"VEC2"},{"bufferView":1,"byteOffset":128,"count":49,"componentType":5126,"type":"VEC2"},{"bufferView":1,"byteOffset":520,"count":16,"componentType":5126,"type":"VEC2"},{"bufferView":1,"byteOffset":648,"count":18,"componentType":5126,"type":"VEC2"},{"bufferView":1,"byteOffset":792,"count":52,"componentType":5126,"type":"VEC2"},{"bufferView":1,"byteOffset":1208,"count":8,"componentType":5126,"type":"VEC2"},{"bufferView":1,"byteOffset":1272,"count":4,"componentType":5126,"type":"VEC2"},{"bufferView":1,"byteOffset":1304,"count":30,"componentType":5126,"type":"VEC2"},{"bufferView":1,"byteOffset":1544,"count":46,"componentType":5126,"type":"VEC2"},{"bufferView":1,"byteOffset":1912,"count":44,"componentType":5126,"type":"VEC2"},{"bufferView":1,"byteOffset":2264,"count":28,"componentType":5126,"type":"VEC2"},{"bufferView":2,"byteOffset":0,"count":1656,"componentType":5125,"type":"SCALAR"},{"bufferView":2,"byteOffset":6624,"count":42,"componentType":5125,"type":"SCALAR"},{"bufferView":2,"byteOffset":6792,"count":162,"componentType":5125,"type":"SCALAR"},{"bufferView":2,"byteOffset":7440,"count":42,"componentType":5125,"type":"SCALAR"},{"bufferView":2,"byteOffset":7608,"count":48,"componentType":5125,"type":"SCALAR"},{"bufferView":2,"byteOffset":7800,"count":216,"componentType":5125,"type":"SCALAR"},{"bufferView":2,"byteOffset":8664,"count":18,"componentType":5125,"type":"SCALAR"},{"bufferView":2,"byteOffset":8736,"count":6,"componentType":5125,"type":"SCALAR"},{"bufferView":2,"byteOffset":8760,"count":84,"componentType":5125,"type":"SCALAR"},{"bufferView":2,"byteOffset":9096,"count":132,"componentType":5125,"type":"SCALAR"},{"bufferView":2,"byteOffset":9624,"count":126,"componentType":5125,"type":"SCALAR"},{"bufferView":2,"byteOffset":10128,"count":78,"componentType":5125,"type":"SCALAR"},{"bufferView":3,"byteOffset":0,"count":2513,"componentType":5126,"type":"VEC3","min":[-0.450789213180542,-0.49195140600204468,-0.0018923762254416943],"max":[0.45317962765693665,-0.44962671399116516,0.078644834458827972]},{"bufferView":3,"byteOffset":30156,"count":26,"componentType":5126,"type":"VEC3","min":[0.0440487265586853,-0.48175573348999023,0.0040557743050158024],"max":[0.07196316123008728,-0.45127397775650024,0.041829366236925125]},{"bufferView":3,"byteOffset":30468,"count":4,"componentType":5126,"type":"VEC3","min":[0.440835565328598,-0.49195119738578796,0.0054076500236988068],"max":[0.440835565328598,-0.45164826512336731,0.078644834458827972]},{"bufferView":3,"byteOffset":30516,"count":75,"componentType":5126,"type":"VEC3","min":[-0.28292864561080933,-0.49195137619972229,0.0036501998547464609],"max":[-0.2033001035451889,-0.47284558415412903,0.072639726102352142]},{"bufferView":3,"byteOffset":31416,"count":205,"componentType":5126,"type":"VEC3","min":[-0.450789213180542,-0.49195140600204468,0.0036501912400126457],"max":[-0.31509804725646973,-0.47284561395645142,0.072639718651771545]},{"bufferView":3,"byteOffset":33876,"count":4,"componentType":5126,"type":"VEC3","min":[-0.065037250518798828,-0.49195131659507751,0.072639733552932739],"max":[0.00051721930503845215,-0.47026747465133667,0.078644804656505585]},{"bufferView":3,"byteOffset":33924,"count":61,"componentType":5126,"type":"VEC3","min":[-0.065037250518798828,-0.49195131659507751,0.0036502133589237928],"max":[0.00051721930503845215,-0.47284552454948425,0.072639741003513336]},{"bufferView":3,"byteOffset":34656,"count":37,"componentType":5126,"type":"VEC3","min":[0.0070632994174957275,-0.49195128679275513,0.0054526845924556255],"max":[0.036099940538406372,-0.47334468364715576,0.072639741003513336]},{"bufferView":3,"byteOffset":35100,"count":78,"componentType":5126,"type":"VEC3","min":[0.041523844003677368,-0.48998650908470154,0.039474304765462875],"max":[0.068736881017684937,-0.4827665388584137,0.065545022487640381]},{"bufferView":3,"byteOffset":36036,"count":34,"componentType":5126,"type":"VEC3","min":[0.034463375806808472,-0.48175573348999023,-0.0018923762254416943],"max":[0.07196316123008728,-0.471310555934906,0.035824298858642578]},{"bufferView":3,"byteOffset":36444,"count":137,"componentType":5126,"type":"VEC3","min":[0.074160784482955933,-0.49195128679275513,0.0054526920430362225],"max":[0.14953437447547913,-0.47334465384483337,0.072639748454093933]},{"bufferView":3,"byteOffset":38088,"count":37,"componentType":5126,"type":"VEC3","min":[0.1560804545879364,-0.49195125699043274,0.0054526939056813717],"max":[0.18511709570884705,-0.47334465384483337,0.072639748454093933]},{"bufferView":3,"byteOffset":38532,"count":139,"componentType":5126,"type":"VEC3","min":[0.21345230937004089,-0.48733392357826233,0.0041459095664322376],"max":[0.28675034642219543,-0.4729827344417572,0.055966906249523163]},{"bufferView":3,"byteOffset":40200,"count":37,"componentType":5126,"type":"VEC3","min":[0.29481086134910583,-0.49195122718811035,0.0054527027532458305],"max":[0.32384750247001648,-0.473344624042511,0.072639763355255127]},{"bufferView":3,"byteOffset":40644,"count":88,"componentType":5126,"type":"VEC3","min":[0.3173014223575592,-0.49195122718811035,0.0036502378061413765],"max":[0.386456161737442,-0.47284543514251709,0.072639763355255127]},{"bufferView":3,"byteOffset":41700,"count":37,"componentType":5126,"type":"VEC3","min":[0.39300230145454407,-0.49195119738578796,0.0054527088068425655],"max":[0.42203888297080994,-0.4733445942401886,0.072639763355255127]},{"bufferView":3,"byteOffset":42144,"count":4,"componentType":5126,"type":"VEC3","min":[0.440835565328598,-0.49195119738578796,0.0054076500236988068],"max":[0.45317962765693665,-0.47333210706710815,0.072639770805835724]},{"bufferView":3,"byteOffset":42192,"count":4,"componentType":5126,"type":"VEC3","min":[-0.28292864561080933,-0.49195137619972229,0.072639718651771545],"max":[-0.2033001035451889,-0.47026750445365906,0.078644789755344391]},{"bufferView":3,"byteOffset":42240,"count":58,"componentType":5126,"type":"VEC3","min":[-0.15700986981391907,-0.4919513463973999,0.0036502075381577015],"max":[-0.084909319877624512,-0.47284555435180664,0.072639733552932739]},{"bufferView":4,"byteOffset":0,"count":2513,"componentType":5126,"type":"VEC2"},{"bufferView":4,"byteOffset":20104,"count":26,"componentType":5126,"type":"VEC2"},{"bufferView":4,"byteOffset":20312,"count":4,"componentType":5126,"type":"VEC2"},{"bufferView":4,"byteOffset":20344,"count":75,"componentType":5126,"type":"VEC2"},{"bufferView":4,"byteOffset":20944,"count":205,"componentType":5126,"type":"VEC2"},{"bufferView":4,"byteOffset":22584,"count":4,"componentType":5126,"type":"VEC2"},{"bufferView":4,"byteOffset":22616,"count":61,"componentType":5126,"type":"VEC2"},{"bufferView":4,"byteOffset":23104,"count":37,"componentType":5126,"type":"VEC2"},{"bufferView":4,"byteOffset":23400,"count":78,"componentType":5126,"type":"VEC2"},{"bufferView":4,"byteOffset":24024,"count":34,"componentType":5126,"type":"VEC2"},{"bufferView":4,"byteOffset":24296,"count":137,"componentType":5126,"type":"VEC2"},{"bufferView":4,"byteOffset":25392,"count":37,"componentType":5126,"type":"VEC2"},{"bufferView":4,"byteOffset":25688,"count":139,"componentType":5126,"type":"VEC2"},{"bufferView":4,"byteOffset":26800,"count":37,"componentType":5126,"type":"VEC2"},{"bufferView":4,"byteOffset":27096,"count":88,"componentType":5126,"type":"VEC2"},{"bufferView":4,"byteOffset":27800,"count":37,"componentType":5126,"type":"VEC2"},{"bufferView":4,"byteOffset":28096,"count":4,"componentType":5126,"type":"VEC2"},{"bufferView":4,"byteOffset":28128,"count":4,"componentType":5126,"type":"VEC2"},{"bufferView":4,"byteOffset":28160,"count":58,"componentType":5126,"type":"VEC2"},{"bufferView":5,"byteOffset":0,"count":11898,"componentType":5125,"type":"SCALAR"},{"bufferView":5,"byteOffset":47592,"count":72,"componentType":5125,"type":"SCALAR"},{"bufferView":5,"byteOffset":47880,"count":6,"componentType":5125,"type":"SCALAR"},{"bufferView":5,"byteOffset":47904,"count":225,"componentType":5125,"type":"SCALAR"},{"bufferView":5,"byteOffset":48804,"count":615,"componentType":5125,"type":"SCALAR"},{"bufferView":5,"byteOffset":51264,"count":6,"componentType":5125,"type":"SCALAR"},{"bufferView":5,"byteOffset":51288,"count":183,"componentType":5125,"type":"SCALAR"},{"bufferView":5,"byteOffset":52020,"count":105,"componentType":5125,"type":"SCALAR"},{"bufferView":5,"byteOffset":52440,"count":234,"componentType":5125,"type":"SCALAR"},{"bufferView":5,"byteOffset":53376,"count":96,"componentType":5125,"type":"SCALAR"},{"bufferView":5,"byteOffset":53760,"count":405,"componentType":5125,"type":"SCALAR"},{"bufferView":5,"byteOffset":55380,"count":105,"componentType":5125,"type":"SCALAR"},{"bufferView":5,"byteOffset":55800,"count":411,"componentType":5125,"type":"SCALAR"},{"bufferView":5,"byteOffset":57444,"count":105,"componentType":5125,"type":"SCALAR"},{"bufferView":5,"byteOffset":57864,"count":267,"componentType":5125,"type":"SCALAR"},{"bufferView":5,"byteOffset":58932,"count":105,"componentType":5125,"type":"SCALAR"},{"bufferView":5,"byteOffset":59352,"count":6,"componentType":5125,"type":"SCALAR"},{"bufferView":5,"byteOffset":59376,"count":6,"componentType":5125,"type":"SCALAR"},{"bufferView":5,"byteOffset":59400,"count":174,"componentType":5125,"type":"SCALAR"}],"bufferViews":[{"buffer":0,"byteOffset":0,"byteLength":7476,"byteStride":12,"target":34962},{"buffer":0,"byteOffset":7476,"byteLength":2488,"byteStride":8,"target":34962},{"buffer":0,"byteOffset":9964,"byteLength":10440,"target":34963},{"buffer":0,"byteOffset":20404,"byteLength":42936,"byteStride":12,"target":34962},{"buffer":0,"byteOffset":63340,"byteLength":28624,"byteStride":8,"target":34962},{"buffer":0,"byteOffset":91964,"byteLength":60096,"target":34963}],"buffers":[{"byteLength":152060,"uri":"amori_bangla.bin"}]}