{"asset":{"generator":"3D Builder","version":"2.0"},"scene":0,"scenes":[{"nodes":[0,1,2]}],"nodes":[{"mesh":0,"matrix":[1,0,0,0,0,-1.1920928955078125E-7,-0.99999988079071045,0,0,0.99999988079071045,-1.1920928955078125E-7,0,0,2.2217785379554625E-16,3.027915473907683E-9,1]},{"mesh":1,"matrix":[1,0,0,0,0,-1.1920928955078125E-7,-0.99999988079071045,0,0,0.99999988079071045,-1.1920928955078125E-7,0,0,2.2217785379554625E-16,3.027915473907683E-9,1]},{"mesh":2,"matrix":[1,0,0,0,0,-1.1920928955078125E-7,-0.99999988079071045,0,0,0.99999988079071045,-1.1920928955078125E-7,0,0,2.2217785379554625E-16,3.027915473907683E-9,1]}],"meshes":[{"primitives":[{"attributes":{"POSITION":0,"TEXCOORD_0":1},"mode":4,"indices":2,"material":0}]},{"primitives":[{"attributes":{"POSITION":3,"TEXCOORD_0":4},"mode":4,"indices":5,"material":1}]},{"primitives":[{"attributes":{"POSITION":6,"TEXCOORD_0":7},"mode":4,"indices":8,"material":2}]}],"materials":[{"pbrMetallicRoughness":{"baseColorFactor":[1,1,1,1],"metallicFactor":1,"roughnessFactor":1,"baseColorTexture":{"index":0,"texCoord":0},"metallicRoughnessTexture":{"index":1,"texCoord":0}},"alphaMode":"OPAQUE"},{"pbrMetallicRoughness":{"baseColorFactor":[1,1,1,1],"metallicFactor":1,"roughnessFactor":1,"baseColorTexture":{"index":2,"texCoord":0},"metallicRoughnessTexture":{"index":3,"texCoord":0}},"alphaMode":"OPAQUE"},{"pbrMetallicRoughness":{"baseColorFactor":[1,1,1,1],"metallicFactor":1,"roughnessFactor":1,"baseColorTexture":{"index":4,"texCoord":0},"metallicRoughnessTexture":{"index":5,"texCoord":0}},"alphaMode":"OPAQUE"}],"textures":[{"source":0,"sampler":0},{"source":1,"sampler":0},{"source":2,"sampler":0},{"source":3,"sampler":0},{"source":4,"sampler":0},{"source":5,"sampler":0}],"images":[{"uri":"texture_0.png"},{"uri":"texture_1_10852638490067281019.png"},{"uri":"texture_2.png"},{"uri":"texture_3_143254585871571099.png"},{"uri":"texture_4.png"},{"uri":"texture_5_5607007607087937307.png"}],"samplers":[{"magFilter":9729,"wrapS":10497,"wrapT":10497}],"accessors":[{"bufferView":0,"byteOffset":0,"count":1014,"componentType":5126,"type":"VEC3","min":[0.14157141745090485,-0.054751750081777573,1.3877787807814457E-16],"max":[0.34480920433998108,0.049802396446466446,0.38920402526855469]},{"bufferView":1,"byteOffset":0,"count":1014,"componentType":5126,"type":"VEC2"},{"bufferView":2,"byteOffset":0,"count":4950,"componentType":5125,"type":"SCALAR"},{"bufferView":3,"byteOffset":0,"count":1212,"componentType":5126,"type":"VEC3","min":[-0.34418421983718872,-0.039719074964523315,0.059078846126794815],"max":[0.063783720135688782,0.051173511892557144,0.311675488948822]},{"bufferView":4,"byteOffset":0,"count":1212,"componentType":5126,"type":"VEC2"},{"bufferView":5,"byteOffset":0,"count":6390,"componentType":5125,"type":"SCALAR"},{"bufferView":6,"byteOffset":0,"count":1345,"componentType":5126,"type":"VEC3","min":[-0.34480920433998108,-0.050234254449605942,0.0076360208913683891],"max":[0.22946992516517639,0.05475175753235817,0.36940062046051025]},{"bufferView":7,"byteOffset":0,"count":1345,"componentType":5126,"type":"VEC2"},{"bufferView":8,"byteOffset":0,"count":7200,"componentType":5125,"type":"SCALAR"}],"bufferViews":[{"buffer":0,"byteOffset":0,"byteLength":12168,"byteStride":12,"target":34962},{"buffer":0,"byteOffset":12168,"byteLength":8112,"byteStride":8,"target":34962},{"buffer":0,"byteOffset":20280,"byteLength":19800,"target":34963},{"buffer":0,"byteOffset":40080,"byteLength":14544,"byteStride":12,"target":34962},{"buffer":0,"byteOffset":54624,"byteLength":9696,"byteStride":8,"target":34962},{"buffer":0,"byteOffset":64320,"byteLength":25560,"target":34963},{"buffer":0,"byteOffset":89880,"byteLength":16140,"byteStride":12,"target":34962},{"buffer":0,"byteOffset":106020,"byteLength":10760,"byteStride":8,"target":34962},{"buffer":0,"byteOffset":116780,"byteLength":28800,"target":34963}],"buffers":[{"byteLength":145580,"uri":"aa_s.bin"}]}