{"asset":{"generator":"3D Builder","version":"2.0"},"scene":0,"scenes":[{"nodes":[0]}],"nodes":[{"mesh":0,"matrix":[1,0,0,0,0,-1.1920928955078125E-7,-0.99999988079071045,0,0,0.99999988079071045,-1.1920928955078125E-7,0,0.0994410291314125,-0.054354880005121231,-0.24995806813240051,1]}],"meshes":[{"primitives":[{"attributes":{"POSITION":0,"TEXCOORD_0":9},"mode":4,"indices":18,"material":0},{"attributes":{"POSITION":1,"TEXCOORD_0":10},"mode":4,"indices":19,"material":1},{"attributes":{"POSITION":2,"TEXCOORD_0":11},"mode":4,"indices":20,"material":1},{"attributes":{"POSITION":3,"TEXCOORD_0":12},"mode":4,"indices":21,"material":1},{"attributes":{"POSITION":4,"TEXCOORD_0":13},"mode":4,"indices":22,"material":1},{"attributes":{"POSITION":5,"TEXCOORD_0":14},"mode":4,"indices":23,"material":1},{"attributes":{"POSITION":6,"TEXCOORD_0":15},"mode":4,"indices":24,"material":1},{"attributes":{"POSITION":7,"TEXCOORD_0":16},"mode":4,"indices":25,"material":1},{"attributes":{"POSITION":8,"TEXCOORD_0":17},"mode":4,"indices":26,"material":1}]}],"materials":[{"pbrMetallicRoughness":{"baseColorFactor":[1,1,1,1],"metallicFactor":1,"roughnessFactor":1,"baseColorTexture":{"index":0,"texCoord":0},"metallicRoughnessTexture":{"index":1,"texCoord":0}},"alphaMode":"OPAQUE"},{"pbrMetallicRoughness":{"baseColorFactor":[1,1,1,1],"metallicFactor":0,"roughnessFactor":1,"baseColorTexture":{"index":2,"texCoord":0}},"alphaMode":"OPAQUE"}],"textures":[{"source":0,"sampler":0},{"source":1,"sampler":0},{"source":2,"sampler":0}],"images":[{"uri":"texture_0_6195987693227547908.png"},{"uri":"texture_1_17319628118832143767.png"},{"uri":"texture_2_11563080508590297124.png"}],"samplers":[{"magFilter":9729,"wrapS":10497,"wrapT":10497}],"accessors":[{"bufferView":0,"byteOffset":0,"count":260,"componentType":5126,"type":"VEC3","min":[-0.13095580041408539,-0.26120811700820923,0.05435485765337944],"max":[-0.067926257848739624,-0.23870810866355896,0.12608134746551514]},{"bufferView":0,"byteOffset":3120,"count":12,"componentType":5126,"type":"VEC3","min":[-0.11505814641714096,-0.26120811700820923,0.11359701305627823],"max":[-0.10819513350725174,-0.23870812356472015,0.11621804535388947]},{"bufferView":0,"byteOffset":3264,"count":24,"componentType":5126,"type":"VEC3","min":[-0.12785939872264862,-0.26120811700820923,0.12248098850250244],"max":[-0.11725575476884842,-0.23870812356472015,0.12481889128684998]},{"bufferView":0,"byteOffset":3552,"count":16,"componentType":5126,"type":"VEC3","min":[-0.10819514095783234,-0.26120811700820923,0.11621804535388947],"max":[-0.10060997307300568,-0.23870812356472015,0.12608134746551514]},{"bufferView":0,"byteOffset":3744,"count":24,"componentType":5126,"type":"VEC3","min":[-0.10000212490558624,-0.26120811700820923,0.11426199972629547],"max":[-0.0927598625421524,-0.23870810866355896,0.12608134746551514]},{"bufferView":0,"byteOffset":4032,"count":4,"componentType":5126,"type":"VEC3","min":[-0.08541368693113327,-0.26120811700820923,0.12594106793403625],"max":[-0.067926257848739624,-0.23870810866355896,0.12594106793403625]},{"bufferView":0,"byteOffset":4080,"count":26,"componentType":5126,"type":"VEC3","min":[-0.11575952172279358,-0.26120811700820923,0.072029314935207367],"max":[-0.085694238543510437,-0.23870810866355896,0.089049167931079865]},{"bufferView":0,"byteOffset":4392,"count":32,"componentType":5126,"type":"VEC3","min":[-0.12324076890945435,-0.26120811700820923,0.0950341671705246],"max":[-0.10156851261854172,-0.23870812356472015,0.10770552605390549]},{"bufferView":0,"byteOffset":4776,"count":156,"componentType":5126,"type":"VEC3","min":[-0.13095580041408539,-0.26120811700820923,0.05435485765337944],"max":[-0.067926257848739624,-0.26120811700820923,0.12608134746551514]},{"bufferView":1,"byteOffset":0,"count":260,"componentType":5126,"type":"VEC2"},{"bufferView":1,"byteOffset":2080,"count":12,"componentType":5126,"type":"VEC2"},{"bufferView":1,"byteOffset":2176,"count":24,"componentType":5126,"type":"VEC2"},{"bufferView":1,"byteOffset":2368,"count":16,"componentType":5126,"type":"VEC2"},{"bufferView":1,"byteOffset":2496,"count":24,"componentType":5126,"type":"VEC2"},{"bufferView":1,"byteOffset":2688,"count":4,"componentType":5126,"type":"VEC2"},{"bufferView":1,"byteOffset":2720,"count":26,"componentType":5126,"type":"VEC2"},{"bufferView":1,"byteOffset":2928,"count":32,"componentType":5126,"type":"VEC2"},{"bufferView":1,"byteOffset":3184,"count":156,"componentType":5126,"type":"VEC2"},{"bufferView":2,"byteOffset":0,"count":1050,"componentType":5125,"type":"SCALAR"},{"bufferView":2,"byteOffset":4200,"count":30,"componentType":5125,"type":"SCALAR"},{"bufferView":2,"byteOffset":4320,"count":66,"componentType":5125,"type":"SCALAR"},{"bufferView":2,"byteOffset":4584,"count":42,"componentType":5125,"type":"SCALAR"},{"bufferView":2,"byteOffset":4752,"count":66,"componentType":5125,"type":"SCALAR"},{"bufferView":2,"byteOffset":5016,"count":6,"componentType":5125,"type":"SCALAR"},{"bufferView":2,"byteOffset":5040,"count":72,"componentType":5125,"type":"SCALAR"},{"bufferView":2,"byteOffset":5328,"count":90,"componentType":5125,"type":"SCALAR"},{"bufferView":2,"byteOffset":5688,"count":462,"componentType":5125,"type":"SCALAR"}],"bufferViews":[{"buffer":0,"byteOffset":0,"byteLength":6648,"byteStride":12,"target":34962},{"buffer":0,"byteOffset":6648,"byteLength":4432,"byteStride":8,"target":34962},{"buffer":0,"byteOffset":11080,"byteLength":7536,"target":34963}],"buffers":[{"byteLength":18616,"uri":"kha.bin"}]}