{"asset":{"generator":"3D Builder","version":"2.0"},"scene":0,"scenes":[{"nodes":[0,1]}],"nodes":[{"mesh":0,"matrix":[1,0,0,0,0,-1.1920928955078125E-7,-0.99999988079071045,0,0,0.99999988079071045,-1.1920928955078125E-7,0,-0.018624965101480484,0.1242566779255867,-0.21616190671920776,1]},{"mesh":1,"matrix":[1,0,0,0,0,-1.1920928955078125E-7,-0.99999988079071045,0,0,0.99999988079071045,-1.1920928955078125E-7,0,-0.018624965101480484,0.1242566779255867,-0.21616190671920776,1]}],"meshes":[{"primitives":[{"attributes":{"POSITION":0,"TEXCOORD_0":1},"mode":4,"indices":2,"material":0}]},{"primitives":[{"attributes":{"POSITION":3,"TEXCOORD_0":4},"mode":4,"indices":5,"material":1}]}],"materials":[{"pbrMetallicRoughness":{"baseColorFactor":[1,1,1,1],"metallicFactor":1,"roughnessFactor":1,"baseColorTexture":{"index":0,"texCoord":0},"metallicRoughnessTexture":{"index":1,"texCoord":0}},"alphaMode":"OPAQUE"},{"pbrMetallicRoughness":{"baseColorFactor":[1,1,1,1],"metallicFactor":1,"roughnessFactor":1,"baseColorTexture":{"index":2,"texCoord":0},"metallicRoughnessTexture":{"index":3,"texCoord":0}},"alphaMode":"OPAQUE"}],"textures":[{"source":0,"sampler":0},{"source":1,"sampler":0},{"source":2,"sampler":0},{"source":3,"sampler":0}],"images":[{"uri":"texture_0_6195987693227547908.png"},{"uri":"texture_1_17319628118832143767.png"},{"uri":"texture_2_11563080508590297124.png"},{"uri":"texture_3_12154559721164250551.png"}],"samplers":[{"magFilter":9729,"wrapS":10497,"wrapT":10497}],"accessors":[{"bufferView":0,"byteOffset":0,"count":1212,"componentType":5126,"type":"VEC3","min":[-0.26788961887359619,-0.24504917860031128,-0.07281792163848877],"max":[0.14007832109928131,-0.18250343203544617,0.18202009797096252]},{"bufferView":1,"byteOffset":0,"count":1212,"componentType":5126,"type":"VEC2"},{"bufferView":2,"byteOffset":0,"count":6390,"componentType":5125,"type":"SCALAR"},{"bufferView":3,"byteOffset":0,"count":1345,"componentType":5126,"type":"VEC3","min":[-0.26851460337638855,-0.24982042610645294,-0.12425671517848969],"max":[0.30576452612876892,-0.18587104976177216,0.24094347655773163]},{"bufferView":4,"byteOffset":0,"count":1345,"componentType":5126,"type":"VEC2"},{"bufferView":5,"byteOffset":0,"count":7200,"componentType":5125,"type":"SCALAR"}],"bufferViews":[{"buffer":0,"byteOffset":0,"byteLength":14544,"byteStride":12,"target":34962},{"buffer":0,"byteOffset":14544,"byteLength":9696,"byteStride":8,"target":34962},{"buffer":0,"byteOffset":24240,"byteLength":25560,"target":34963},{"buffer":0,"byteOffset":49800,"byteLength":16140,"byteStride":12,"target":34962},{"buffer":0,"byteOffset":65940,"byteLength":10760,"byteStride":8,"target":34962},{"buffer":0,"byteOffset":76700,"byteLength":28800,"target":34963}],"buffers":[{"byteLength":105500,"uri":"a_s.bin"}]}