{"asset":{"generator":"3D Builder","version":"2.0"},"scene":0,"scenes":[{"nodes":[0]}],"nodes":[{"mesh":0,"matrix":[1,0,0,0,0,-1.1920928955078125E-7,-0.99999988079071045,0,0,0.99999988079071045,-1.1920928955078125E-7,0,0.12837532162666321,-0.015733281150460243,-0.24995806813240051,1]}],"meshes":[{"primitives":[{"attributes":{"POSITION":0,"TEXCOORD_0":7},"mode":4,"indices":14,"material":0},{"attributes":{"POSITION":1,"TEXCOORD_0":8},"mode":4,"indices":15,"material":1},{"attributes":{"POSITION":2,"TEXCOORD_0":9},"mode":4,"indices":16,"material":1},{"attributes":{"POSITION":3,"TEXCOORD_0":10},"mode":4,"indices":17,"material":1},{"attributes":{"POSITION":4,"TEXCOORD_0":11},"mode":4,"indices":18,"material":1},{"attributes":{"POSITION":5,"TEXCOORD_0":12},"mode":4,"indices":19,"material":1},{"attributes":{"POSITION":6,"TEXCOORD_0":13},"mode":4,"indices":20,"material":1}]}],"materials":[{"pbrMetallicRoughness":{"baseColorFactor":[1,1,1,1],"metallicFactor":1,"roughnessFactor":1,"baseColorTexture":{"index":0,"texCoord":0},"metallicRoughnessTexture":{"index":1,"texCoord":0}},"alphaMode":"OPAQUE"},{"pbrMetallicRoughness":{"baseColorFactor":[1,1,1,1],"metallicFactor":0,"roughnessFactor":1,"baseColorTexture":{"index":2,"texCoord":0}},"alphaMode":"OPAQUE"}],"textures":[{"source":0,"sampler":0},{"source":1,"sampler":0},{"source":2,"sampler":0}],"images":[{"uri":"texture_0_6195987693227547908.png"},{"uri":"texture_1_17319628118832143767.png"},{"uri":"texture_0.png"}],"samplers":[{"magFilter":9729,"wrapS":10497,"wrapT":10497}],"accessors":[{"bufferView":0,"byteOffset":0,"count":307,"componentType":5126,"type":"VEC3","min":[-0.17747104167938232,-0.26120808720588684,0.015733253210783005],"max":[-0.079279616475105286,-0.23870807886123657,0.087319470942020416]},{"bufferView":0,"byteOffset":3684,"count":4,"componentType":5126,"type":"VEC3","min":[-0.17747104167938232,-0.26120808720588684,0.087319448590278625],"max":[-0.079279616475105286,-0.23870807886123657,0.087319470942020416]},{"bufferView":0,"byteOffset":3732,"count":34,"componentType":5126,"type":"VEC3","min":[-0.11734049022197723,-0.26120808720588684,0.052053660154342651],"max":[-0.088163614273071289,-0.23870807886123657,0.0731518417596817]},{"bufferView":0,"byteOffset":4140,"count":22,"componentType":5126,"type":"VEC3","min":[-0.11095286160707474,-0.26120808720588684,0.045354321599006653],"max":[-0.098403573036193848,-0.23870807886123657,0.049165084958076477]},{"bufferView":0,"byteOffset":4404,"count":26,"componentType":5126,"type":"VEC3","min":[-0.15198802947998047,-0.26120808720588684,0.037615910172462463],"max":[-0.12982483208179474,-0.23870807886123657,0.049165099859237671]},{"bufferView":0,"byteOffset":4716,"count":38,"componentType":5126,"type":"VEC3","min":[-0.16765190660953522,-0.26120808720588684,0.053981155157089233],"max":[-0.12954427301883698,-0.23870807886123657,0.073198609054088593]},{"bufferView":0,"byteOffset":5172,"count":143,"componentType":5126,"type":"VEC3","min":[-0.17747104167938232,-0.26120808720588684,0.015733253210783005],"max":[-0.079279616475105286,-0.26120805740356445,0.087319470942020416]},{"bufferView":1,"byteOffset":0,"count":307,"componentType":5126,"type":"VEC2"},{"bufferView":1,"byteOffset":2456,"count":4,"componentType":5126,"type":"VEC2"},{"bufferView":1,"byteOffset":2488,"count":34,"componentType":5126,"type":"VEC2"},{"bufferView":1,"byteOffset":2760,"count":22,"componentType":5126,"type":"VEC2"},{"bufferView":1,"byteOffset":2936,"count":26,"componentType":5126,"type":"VEC2"},{"bufferView":1,"byteOffset":3144,"count":38,"componentType":5126,"type":"VEC2"},{"bufferView":1,"byteOffset":3448,"count":143,"componentType":5126,"type":"VEC2"},{"bufferView":2,"byteOffset":0,"count":945,"componentType":5125,"type":"SCALAR"},{"bufferView":2,"byteOffset":3780,"count":6,"componentType":5125,"type":"SCALAR"},{"bufferView":2,"byteOffset":3804,"count":96,"componentType":5125,"type":"SCALAR"},{"bufferView":2,"byteOffset":4188,"count":60,"componentType":5125,"type":"SCALAR"},{"bufferView":2,"byteOffset":4428,"count":72,"componentType":5125,"type":"SCALAR"},{"bufferView":2,"byteOffset":4716,"count":108,"componentType":5125,"type":"SCALAR"},{"bufferView":2,"byteOffset":5148,"count":429,"componentType":5125,"type":"SCALAR"}],"bufferViews":[{"buffer":0,"byteOffset":0,"byteLength":6888,"byteStride":12,"target":34962},{"buffer":0,"byteOffset":6888,"byteLength":4592,"byteStride":8,"target":34962},{"buffer":0,"byteOffset":11480,"byteLength":6864,"target":34963}],"buffers":[{"byteLength":18344,"uri":"ka.bin"}]}