{"asset":{"generator":"3D Builder","version":"2.0"},"scene":0,"scenes":[{"nodes":[0,1,2]}],"nodes":[{"mesh":0,"matrix":[1,0,0,0,0,-1.1920928955078125E-7,-0.99999988079071045,0,0,0.99999988079071045,-1.1920928955078125E-7,0,0.11371500790119171,0.031533472239971161,-0.2212158739566803,1]},{"mesh":1,"matrix":[1,0,0,0,0,-1.1920928955078125E-7,-0.99999988079071045,0,0,0.99999988079071045,-1.1920928955078125E-7,0,0.11371500790119171,0.031533472239971161,-0.2212158739566803,1]},{"mesh":2,"matrix":[1,0,0,0,0,-1.1920928955078125E-7,-0.99999988079071045,0,0,0.99999988079071045,-1.1920928955078125E-7,0,0.11371500790119171,0.031533472239971161,-0.2212158739566803,1]}],"meshes":[{"primitives":[{"attributes":{"POSITION":0,"TEXCOORD_0":2},"mode":4,"indices":4,"material":0},{"attributes":{"POSITION":1,"TEXCOORD_0":3},"mode":4,"indices":5,"material":1}]},{"primitives":[{"attributes":{"POSITION":6,"TEXCOORD_0":7},"mode":4,"indices":8,"material":0}]},{"primitives":[{"attributes":{"POSITION":9,"TEXCOORD_0":33},"mode":4,"indices":57,"material":2},{"attributes":{"POSITION":10,"TEXCOORD_0":34},"mode":4,"indices":58,"material":1},{"attributes":{"POSITION":11,"TEXCOORD_0":35},"mode":4,"indices":59,"material":1},{"attributes":{"POSITION":12,"TEXCOORD_0":36},"mode":4,"indices":60,"material":1},{"attributes":{"POSITION":13,"TEXCOORD_0":37},"mode":4,"indices":61,"material":1},{"attributes":{"POSITION":14,"TEXCOORD_0":38},"mode":4,"indices":62,"material":1},{"attributes":{"POSITION":15,"TEXCOORD_0":39},"mode":4,"indices":63,"material":1},{"attributes":{"POSITION":16,"TEXCOORD_0":40},"mode":4,"indices":64,"material":1},{"attributes":{"POSITION":17,"TEXCOORD_0":41},"mode":4,"indices":65,"material":1},{"attributes":{"POSITION":18,"TEXCOORD_0":42},"mode":4,"indices":66,"material":1},{"attributes":{"POSITION":19,"TEXCOORD_0":43},"mode":4,"indices":67,"material":1},{"attributes":{"POSITION":20,"TEXCOORD_0":44},"mode":4,"indices":68,"material":1},{"attributes":{"POSITION":21,"TEXCOORD_0":45},"mode":4,"indices":69,"material":1},{"attributes":{"POSITION":22,"TEXCOORD_0":46},"mode":4,"indices":70,"material":1},{"attributes":{"POSITION":23,"TEXCOORD_0":47},"mode":4,"indices":71,"material":1},{"attributes":{"POSITION":24,"TEXCOORD_0":48},"mode":4,"indices":72,"material":1},{"attributes":{"POSITION":25,"TEXCOORD_0":49},"mode":4,"indices":73,"material":1},{"attributes":{"POSITION":26,"TEXCOORD_0":50},"mode":4,"indices":74,"material":1},{"attributes":{"POSITION":27,"TEXCOORD_0":51},"mode":4,"indices":75,"material":1},{"attributes":{"POSITION":28,"TEXCOORD_0":52},"mode":4,"indices":76,"material":1},{"attributes":{"POSITION":29,"TEXCOORD_0":53},"mode":4,"indices":77,"material":1},{"attributes":{"POSITION":30,"TEXCOORD_0":54},"mode":4,"indices":78,"material":1},{"attributes":{"POSITION":31,"TEXCOORD_0":55},"mode":4,"indices":79,"material":1},{"attributes":{"POSITION":32,"TEXCOORD_0":56},"mode":4,"indices":80,"material":1}]}],"materials":[{"pbrMetallicRoughness":{"baseColorFactor":[1,1,1,1],"metallicFactor":1,"roughnessFactor":1,"baseColorTexture":{"index":0,"texCoord":0},"metallicRoughnessTexture":{"index":1,"texCoord":0}},"alphaMode":"OPAQUE"},{"pbrMetallicRoughness":{"baseColorFactor":[1,1,1,1],"metallicFactor":0,"roughnessFactor":1,"baseColorTexture":{"index":2,"texCoord":0}},"alphaMode":"OPAQUE"},{"pbrMetallicRoughness":{"baseColorFactor":[1,1,1,1],"metallicFactor":1,"roughnessFactor":1,"baseColorTexture":{"index":0,"texCoord":0}},"alphaMode":"OPAQUE"}],"textures":[{"source":0,"sampler":0},{"source":1,"sampler":0},{"source":2,"sampler":0}],"images":[{"uri":"texture_0_6195987693227547908.png"},{"uri":"texture_1_17319628118832143767.png"},{"uri":"texture_0.png"}],"samplers":[{"magFilter":9729,"wrapS":10497,"wrapT":10497}],"accessors":[{"bufferView":0,"byteOffset":0,"count":374,"componentType":5126,"type":"VEC3","min":[-0.10340249538421631,-0.2374839186668396,-0.0045380294322967529],"max":[-0.026753008365631104,-0.19827497005462646,0.064854174852371216]},{"bufferView":0,"byteOffset":4488,"count":60,"componentType":5126,"type":"VEC3","min":[-0.098770081996917725,-0.2374839186668396,-0.0031155049800872803],"max":[-0.029080688953399658,-0.20645219087600708,0.059606492519378662]},{"bufferView":1,"byteOffset":0,"count":374,"componentType":5126,"type":"VEC2"},{"bufferView":1,"byteOffset":2992,"count":60,"componentType":5126,"type":"VEC2"},{"bufferView":2,"byteOffset":0,"count":2112,"componentType":5125,"type":"SCALAR"},{"bufferView":2,"byteOffset":8448,"count":228,"componentType":5125,"type":"SCALAR"},{"bufferView":3,"byteOffset":0,"count":392,"componentType":5126,"type":"VEC3","min":[-0.64332127571105957,-0.27390682697296143,-0.018433034420013428],"max":[-0.56667172908782959,-0.23469781875610352,0.050959199666976929]},{"bufferView":4,"byteOffset":0,"count":392,"componentType":5126,"type":"VEC2"},{"bufferView":5,"byteOffset":0,"count":2340,"componentType":5125,"type":"SCALAR"},{"bufferView":6,"byteOffset":0,"count":3916,"componentType":5126,"type":"VEC3","min":[-0.60554212331771851,-0.2792472243309021,-0.031533502042293549],"max":[0.41589128971099854,-0.16318456828594208,0.078941136598587036]},{"bufferView":6,"byteOffset":46992,"count":4,"componentType":5126,"type":"VEC3","min":[-0.45713895559310913,-0.27016893029212952,0.0461234450340271],"max":[-0.39083218574523926,-0.24572989344596863,0.057112231850624084]},{"bufferView":6,"byteOffset":47040,"count":4,"componentType":5126,"type":"VEC3","min":[-0.39560365676879883,-0.26640462875366211,0.047816015779972076],"max":[-0.33270254731178284,-0.2421739250421524,0.058711126446723938]},{"bufferView":6,"byteOffset":47088,"count":63,"componentType":5126,"type":"VEC3","min":[-0.39409789443016052,-0.26640462875366211,-0.016180254518985748],"max":[-0.33270254731178284,-0.23389124870300293,0.049504734575748444]},{"bufferView":6,"byteOffset":47844,"count":73,"componentType":5126,"type":"VEC3","min":[-0.45563319325447083,-0.27016893029212952,-0.02071811631321907],"max":[-0.39083218574523926,-0.23628190159797668,0.04790583997964859]},{"bufferView":6,"byteOffset":48720,"count":133,"componentType":5126,"type":"VEC3","min":[-0.30256474018096924,-0.26045110821723938,-0.011951632797718048],"max":[-0.23790368437767029,-0.22885909676551819,0.053299963474273682]},{"bufferView":6,"byteOffset":50316,"count":26,"componentType":5126,"type":"VEC3","min":[-0.23311129212379456,-0.24857029318809509,0.024352887645363808],"max":[-0.19722229242324829,-0.22342985868453979,0.049558766186237335]},{"bufferView":6,"byteOffset":50628,"count":63,"componentType":5126,"type":"VEC3","min":[-0.24116939306259155,-0.25704953074455261,-0.011973850429058075],"max":[-0.17977401614189148,-0.22453613579273224,0.053711138665676117]},{"bufferView":6,"byteOffset":51384,"count":26,"componentType":5126,"type":"VEC3","min":[-0.17498165369033813,-0.24501432478427887,0.025951782241463661],"max":[-0.13909268379211426,-0.21987389028072357,0.051157653331756592]},{"bufferView":6,"byteOffset":51696,"count":63,"componentType":5126,"type":"VEC3","min":[-0.18303975462913513,-0.2534935474395752,-0.010374954901635647],"max":[-0.12164440751075745,-0.22098016738891602,0.05531003326177597]},{"bufferView":6,"byteOffset":52452,"count":4,"componentType":5126,"type":"VEC3","min":[-0.122963547706604,-0.2251744270324707,-0.01952710747718811],"max":[-0.11599943041801453,-0.19559924304485321,0.010810846462845802]},{"bufferView":6,"byteOffset":52500,"count":4,"componentType":5126,"type":"VEC3","min":[-0.024292528629302979,-0.24087165296077728,0.00885930098593235],"max":[-0.022786796092987061,-0.20110660791397095,0.060966730117797852]},{"bufferView":6,"byteOffset":52548,"count":83,"componentType":5126,"type":"VEC3","min":[-0.078023910522460938,-0.24706941843032837,-0.007175881415605545],"max":[-0.0086042284965515137,-0.21386536955833435,0.058419279754161835]},{"bufferView":6,"byteOffset":53544,"count":73,"componentType":5126,"type":"VEC3","min":[0.044206917285919189,-0.23959217965602875,-0.0069696670398116112],"max":[0.10900795459747314,-0.20570513606071472,0.061654292047023773]},{"bufferView":6,"byteOffset":54420,"count":63,"componentType":5126,"type":"VEC3","min":[0.10574227571487427,-0.23582786321640015,-0.0024318061769008636],"max":[0.16713756322860718,-0.20331448316574097,0.063253186643123627]},{"bufferView":6,"byteOffset":55176,"count":24,"componentType":5126,"type":"VEC3","min":[0.23234564065933228,-0.21174123883247375,0.017410894855856895],"max":[0.2521367073059082,-0.18597806990146637,0.041145756840705872]},{"bufferView":6,"byteOffset":55464,"count":193,"componentType":5126,"type":"VEC3","min":[0.19004416465759277,-0.23067086935043335,0.00083527900278568268],"max":[0.30872941017150879,-0.19541987776756287,0.067147761583328247]},{"bufferView":6,"byteOffset":57780,"count":14,"componentType":5126,"type":"VEC3","min":[0.38227009773254395,-0.21485579013824463,0.00567086786031723],"max":[0.38533365726470947,-0.16965945065021515,0.069602660834789276]},{"bufferView":6,"byteOffset":57948,"count":119,"componentType":5126,"type":"VEC3","min":[0.30593025684356689,-0.22358176112174988,0.0050138570368289948],"max":[0.37553644180297852,-0.19112759828567505,0.06951460987329483]},{"bufferView":6,"byteOffset":59376,"count":83,"componentType":5126,"type":"VEC3","min":[-0.60403639078140259,-0.2792472243309021,-0.021644217893481255],"max":[-0.53461670875549316,-0.24604317545890808,0.043950945138931274]},{"bufferView":6,"byteOffset":60372,"count":4,"componentType":5126,"type":"VEC3","min":[-0.60554212331771851,-0.2792472243309021,0.042041510343551636],"max":[-0.53461670875549316,-0.25452563166618347,0.053157337009906769]},{"bufferView":6,"byteOffset":60420,"count":9,"componentType":5126,"type":"VEC3","min":[-0.520991325378418,-0.27398175001144409,0.04328453540802002],"max":[-0.50737136602401733,-0.25285893678665161,0.053906738758087158]},{"bufferView":6,"byteOffset":60528,"count":12,"componentType":5126,"type":"VEC3","min":[-0.4778062105178833,-0.26945552229881287,-0.020908413454890251],"max":[-0.461838036775589,-0.22060085833072662,0.052728384733200073]},{"bufferView":6,"byteOffset":60672,"count":4,"componentType":5126,"type":"VEC3","min":[-0.24267509579658508,-0.25704953074455261,0.05202241986989975],"max":[-0.17977401614189148,-0.23281881213188171,0.062917530536651611]},{"bufferView":7,"byteOffset":0,"count":3916,"componentType":5126,"type":"VEC2"},{"bufferView":7,"byteOffset":31328,"count":4,"componentType":5126,"type":"VEC2"},{"bufferView":7,"byteOffset":31360,"count":4,"componentType":5126,"type":"VEC2"},{"bufferView":7,"byteOffset":31392,"count":63,"componentType":5126,"type":"VEC2"},{"bufferView":7,"byteOffset":31896,"count":73,"componentType":5126,"type":"VEC2"},{"bufferView":7,"byteOffset":32480,"count":133,"componentType":5126,"type":"VEC2"},{"bufferView":7,"byteOffset":33544,"count":26,"componentType":5126,"type":"VEC2"},{"bufferView":7,"byteOffset":33752,"count":63,"componentType":5126,"type":"VEC2"},{"bufferView":7,"byteOffset":34256,"count":26,"componentType":5126,"type":"VEC2"},{"bufferView":7,"byteOffset":34464,"count":63,"componentType":5126,"type":"VEC2"},{"bufferView":7,"byteOffset":34968,"count":4,"componentType":5126,"type":"VEC2"},{"bufferView":7,"byteOffset":35000,"count":4,"componentType":5126,"type":"VEC2"},{"bufferView":7,"byteOffset":35032,"count":83,"componentType":5126,"type":"VEC2"},{"bufferView":7,"byteOffset":35696,"count":73,"componentType":5126,"type":"VEC2"},{"bufferView":7,"byteOffset":36280,"count":63,"componentType":5126,"type":"VEC2"},{"bufferView":7,"byteOffset":36784,"count":24,"componentType":5126,"type":"VEC2"},{"bufferView":7,"byteOffset":36976,"count":193,"componentType":5126,"type":"VEC2"},{"bufferView":7,"byteOffset":38520,"count":14,"componentType":5126,"type":"VEC2"},{"bufferView":7,"byteOffset":38632,"count":119,"componentType":5126,"type":"VEC2"},{"bufferView":7,"byteOffset":39584,"count":83,"componentType":5126,"type":"VEC2"},{"bufferView":7,"byteOffset":40248,"count":4,"componentType":5126,"type":"VEC2"},{"bufferView":7,"byteOffset":40280,"count":9,"componentType":5126,"type":"VEC2"},{"bufferView":7,"byteOffset":40352,"count":12,"componentType":5126,"type":"VEC2"},{"bufferView":7,"byteOffset":40448,"count":4,"componentType":5126,"type":"VEC2"},{"bufferView":8,"byteOffset":0,"count":14106,"componentType":5125,"type":"SCALAR"},{"bufferView":8,"byteOffset":56424,"count":6,"componentType":5125,"type":"SCALAR"},{"bufferView":8,"byteOffset":56448,"count":6,"componentType":5125,"type":"SCALAR"},{"bufferView":8,"byteOffset":56472,"count":189,"componentType":5125,"type":"SCALAR"},{"bufferView":8,"byteOffset":57228,"count":213,"componentType":5125,"type":"SCALAR"},{"bufferView":8,"byteOffset":58080,"count":393,"componentType":5125,"type":"SCALAR"},{"bufferView":8,"byteOffset":59652,"count":90,"componentType":5125,"type":"SCALAR"},{"bufferView":8,"byteOffset":60012,"count":189,"componentType":5125,"type":"SCALAR"},{"bufferView":8,"byteOffset":60768,"count":90,"componentType":5125,"type":"SCALAR"},{"bufferView":8,"byteOffset":61128,"count":189,"componentType":5125,"type":"SCALAR"},{"bufferView":8,"byteOffset":61884,"count":6,"componentType":5125,"type":"SCALAR"},{"bufferView":8,"byteOffset":61908,"count":6,"componentType":5125,"type":"SCALAR"},{"bufferView":8,"byteOffset":61932,"count":249,"componentType":5125,"type":"SCALAR"},{"bufferView":8,"byteOffset":62928,"count":213,"componentType":5125,"type":"SCALAR"},{"bufferView":8,"byteOffset":63780,"count":189,"componentType":5125,"type":"SCALAR"},{"bufferView":8,"byteOffset":64536,"count":66,"componentType":5125,"type":"SCALAR"},{"bufferView":8,"byteOffset":64800,"count":573,"componentType":5125,"type":"SCALAR"},{"bufferView":8,"byteOffset":67092,"count":36,"componentType":5125,"type":"SCALAR"},{"bufferView":8,"byteOffset":67236,"count":351,"componentType":5125,"type":"SCALAR"},{"bufferView":8,"byteOffset":68640,"count":249,"componentType":5125,"type":"SCALAR"},{"bufferView":8,"byteOffset":69636,"count":6,"componentType":5125,"type":"SCALAR"},{"bufferView":8,"byteOffset":69660,"count":21,"componentType":5125,"type":"SCALAR"},{"bufferView":8,"byteOffset":69744,"count":30,"componentType":5125,"type":"SCALAR"},{"bufferView":8,"byteOffset":69864,"count":6,"componentType":5125,"type":"SCALAR"}],"bufferViews":[{"buffer":0,"byteOffset":0,"byteLength":5208,"byteStride":12,"target":34962},{"buffer":0,"byteOffset":5208,"byteLength":3472,"byteStride":8,"target":34962},{"buffer":0,"byteOffset":8680,"byteLength":9360,"target":34963},{"buffer":0,"byteOffset":18040,"byteLength":4704,"byteStride":12,"target":34962},{"buffer":0,"byteOffset":22744,"byteLength":3136,"byteStride":8,"target":34962},{"buffer":0,"byteOffset":25880,"byteLength":9360,"target":34963},{"buffer":0,"byteOffset":35240,"byteLength":60720,"byteStride":12,"target":34962},{"buffer":0,"byteOffset":95960,"byteLength":40480,"byteStride":8,"target":34962},{"buffer":0,"byteOffset":136440,"byteLength":69888,"target":34963}],"buffers":[{"byteLength":206328,"uri":"moder_garab.bin"}]}