{"asset":{"generator":"3D Builder","version":"2.0"},"scene":0,"scenes":[{"nodes":[0,1,2]}],"nodes":[{"mesh":0,"matrix":[1,0,0,0,0,-1.1920928955078125E-7,-0.99999988079071045,0,0,0.99999988079071045,-1.1920928955078125E-7,0,5.6652308558113873E-5,-3.4896295922348664E-12,-2.9273131076479331E-5,1]},{"mesh":1,"matrix":[1,0,0,0,0,-1.1920928955078125E-7,-0.99999988079071045,0,0,0.99999988079071045,-1.1920928955078125E-7,0,5.6652308558113873E-5,-3.4896295922348664E-12,-2.9273131076479331E-5,1]},{"mesh":2,"matrix":[1,0,0,0,0,-1.1920928955078125E-7,-0.99999988079071045,0,0,0.99999988079071045,-1.1920928955078125E-7,0,5.6652308558113873E-5,-3.4896295922348664E-12,-2.9273131076479331E-5,1]}],"meshes":[{"primitives":[{"attributes":{"POSITION":0},"mode":4,"indices":15,"material":0},{"attributes":{"POSITION":1},"mode":4,"indices":16,"material":0},{"attributes":{"POSITION":2},"mode":4,"indices":17,"material":0},{"attributes":{"POSITION":3},"mode":4,"indices":18,"material":0},{"attributes":{"POSITION":4},"mode":4,"indices":19,"material":0},{"attributes":{"POSITION":5},"mode":4,"indices":20,"material":0},{"attributes":{"POSITION":6},"mode":4,"indices":21,"material":0},{"attributes":{"POSITION":7},"mode":4,"indices":22,"material":0},{"attributes":{"POSITION":8},"mode":4,"indices":23,"material":0},{"attributes":{"POSITION":9},"mode":4,"indices":24,"material":0},{"attributes":{"POSITION":10},"mode":4,"indices":25,"material":0},{"attributes":{"POSITION":11},"mode":4,"indices":26,"material":0},{"attributes":{"POSITION":12},"mode":4,"indices":27,"material":0},{"attributes":{"POSITION":13,"TEXCOORD_0":14},"mode":4,"indices":28,"material":1}]},{"primitives":[{"attributes":{"POSITION":29},"mode":4,"indices":42,"material":0},{"attributes":{"POSITION":30},"mode":4,"indices":43,"material":0},{"attributes":{"POSITION":31},"mode":4,"indices":44,"material":0},{"attributes":{"POSITION":32},"mode":4,"indices":45,"material":0},{"attributes":{"POSITION":33},"mode":4,"indices":46,"material":0},{"attributes":{"POSITION":34},"mode":4,"indices":47,"material":0},{"attributes":{"POSITION":35},"mode":4,"indices":48,"material":0},{"attributes":{"POSITION":36,"TEXCOORD_0":39},"mode":4,"indices":49,"material":1},{"attributes":{"POSITION":37,"TEXCOORD_0":40},"mode":4,"indices":50,"material":1},{"attributes":{"POSITION":38,"TEXCOORD_0":41},"mode":4,"indices":51,"material":1}]},{"primitives":[{"attributes":{"POSITION":52},"mode":4,"indices":84,"material":0},{"attributes":{"POSITION":53},"mode":4,"indices":85,"material":0},{"attributes":{"POSITION":54},"mode":4,"indices":86,"material":0},{"attributes":{"POSITION":55},"mode":4,"indices":87,"material":0},{"attributes":{"POSITION":56,"TEXCOORD_0":70},"mode":4,"indices":88,"material":1},{"attributes":{"POSITION":57,"TEXCOORD_0":71},"mode":4,"indices":89,"material":1},{"attributes":{"POSITION":58,"TEXCOORD_0":72},"mode":4,"indices":90,"material":1},{"attributes":{"POSITION":59,"TEXCOORD_0":73},"mode":4,"indices":91,"material":1},{"attributes":{"POSITION":60,"TEXCOORD_0":74},"mode":4,"indices":92,"material":1},{"attributes":{"POSITION":61,"TEXCOORD_0":75},"mode":4,"indices":93,"material":1},{"attributes":{"POSITION":62,"TEXCOORD_0":76},"mode":4,"indices":94,"material":1},{"attributes":{"POSITION":63,"TEXCOORD_0":77},"mode":4,"indices":95,"material":1},{"attributes":{"POSITION":64,"TEXCOORD_0":78},"mode":4,"indices":96,"material":1},{"attributes":{"POSITION":65,"TEXCOORD_0":79},"mode":4,"indices":97,"material":1},{"attributes":{"POSITION":66,"TEXCOORD_0":80},"mode":4,"indices":98,"material":1},{"attributes":{"POSITION":67,"TEXCOORD_0":81},"mode":4,"indices":99,"material":1},{"attributes":{"POSITION":68,"TEXCOORD_0":82},"mode":4,"indices":100,"material":1},{"attributes":{"POSITION":69,"TEXCOORD_0":83},"mode":4,"indices":101,"material":1}]}],"materials":[{"name":"Metallic","pbrMetallicRoughness":{"baseColorFactor":[0.015208514407277107,0.49693304300308228,0.072271861135959625,1],"metallicFactor":1,"roughnessFactor":0.26999998092651367},"alphaMode":"OPAQUE"},{"pbrMetallicRoughness":{"baseColorFactor":[1,1,1,1],"metallicFactor":0,"roughnessFactor":1,"baseColorTexture":{"index":0,"texCoord":0}},"alphaMode":"OPAQUE"}],"textures":[{"source":0,"sampler":0}],"images":[{"uri":"texture_0.png"}],"samplers":[{"magFilter":9729,"wrapS":10497,"wrapT":10497}],"accessors":[{"bufferView":0,"byteOffset":0,"count":249,"componentType":5126,"type":"VEC3","min":[-0.14167620241641998,-0.011250019073486328,0.019154608249664307],"max":[-0.077185198664665222,0.0111914724111557,0.093732938170433044]},{"bufferView":0,"byteOffset":2988,"count":29,"componentType":5126,"type":"VEC3","min":[-0.13736926019191742,-0.011250019073486328,0.025388352572917938],"max":[-0.097246542572975159,-0.011250019073486328,0.042276173830032349]},{"bufferView":0,"byteOffset":3336,"count":60,"componentType":5126,"type":"VEC3","min":[-0.12818862497806549,-0.011250019073486328,0.037855863571166992],"max":[-0.089426010847091675,0.0111914724111557,0.042276173830032349]},{"bufferView":0,"byteOffset":4056,"count":46,"componentType":5126,"type":"VEC3","min":[-0.109260693192482,-0.011250019073486328,0.047603175044059753],"max":[-0.0957731157541275,0.0111914724111557,0.064944356679916382]},{"bufferView":0,"byteOffset":4608,"count":6,"componentType":5126,"type":"VEC3","min":[-0.11322760581970215,-0.011250019073486328,0.047716528177261353],"max":[-0.109260693192482,0.0111914724111557,0.048736602067947388]},{"bufferView":0,"byteOffset":4680,"count":4,"componentType":5126,"type":"VEC3","min":[-0.11515443027019501,-0.011250019073486328,0.048736602067947388],"max":[-0.11322760581970215,0.0111914724111557,0.049643322825431824]},{"bufferView":0,"byteOffset":4728,"count":8,"componentType":5126,"type":"VEC3","min":[-0.11946137249469757,-0.011250019073486328,0.049643322825431824],"max":[-0.11515443027019501,0.0111914724111557,0.053383558988571167]},{"bufferView":0,"byteOffset":4824,"count":8,"componentType":5126,"type":"VEC3","min":[-0.12206821143627167,-0.011250019073486328,0.053383558988571167],"max":[-0.11946137249469757,0.0111914724111557,0.058823943138122559]},{"bufferView":0,"byteOffset":4920,"count":6,"componentType":5126,"type":"VEC3","min":[-0.12263491749763489,-0.011250019073486328,0.058823943138122559],"max":[-0.12206821143627167,0.0111914724111557,0.063244223594665527]},{"bufferView":0,"byteOffset":4992,"count":38,"componentType":5126,"type":"VEC3","min":[-0.12263491749763489,-0.011250019073486328,0.063244223594665527],"max":[-0.082512214779853821,0.0111914724111557,0.093732938170433044]},{"bufferView":0,"byteOffset":5448,"count":8,"componentType":5126,"type":"VEC3","min":[-0.082512214779853821,-0.011250019073486328,0.093279585242271423],"max":[-0.077185198664665222,0.0111914724111557,0.093732938170433044]},{"bufferView":0,"byteOffset":5544,"count":4,"componentType":5126,"type":"VEC3","min":[-0.077185198664665222,-0.011250019073486328,0.019154608249664307],"max":[-0.077185198664665222,0.0111914724111557,0.093279585242271423]},{"bufferView":0,"byteOffset":5592,"count":6,"componentType":5126,"type":"VEC3","min":[-0.13793595135211945,-0.011250019073486328,0.046016417443752289],"max":[-0.12762191891670227,0.0111914724111557,0.053270235657691956]},{"bufferView":0,"byteOffset":5664,"count":140,"componentType":5126,"type":"VEC3","min":[-0.14167620241641998,-0.011250019073486328,0.019154608249664307],"max":[-0.077185198664665222,-0.011250019073486328,0.093732938170433044]},{"bufferView":1,"byteOffset":0,"count":140,"componentType":5126,"type":"VEC2"},{"bufferView":2,"byteOffset":0,"count":978,"componentType":5125,"type":"SCALAR"},{"bufferView":2,"byteOffset":3912,"count":75,"componentType":5125,"type":"SCALAR"},{"bufferView":2,"byteOffset":4212,"count":180,"componentType":5125,"type":"SCALAR"},{"bufferView":2,"byteOffset":4932,"count":135,"componentType":5125,"type":"SCALAR"},{"bufferView":2,"byteOffset":5472,"count":12,"componentType":5125,"type":"SCALAR"},{"bufferView":2,"byteOffset":5520,"count":6,"componentType":5125,"type":"SCALAR"},{"bufferView":2,"byteOffset":5544,"count":18,"componentType":5125,"type":"SCALAR"},{"bufferView":2,"byteOffset":5616,"count":18,"componentType":5125,"type":"SCALAR"},{"bufferView":2,"byteOffset":5688,"count":12,"componentType":5125,"type":"SCALAR"},{"bufferView":2,"byteOffset":5736,"count":108,"componentType":5125,"type":"SCALAR"},{"bufferView":2,"byteOffset":6168,"count":18,"componentType":5125,"type":"SCALAR"},{"bufferView":2,"byteOffset":6240,"count":6,"componentType":5125,"type":"SCALAR"},{"bufferView":2,"byteOffset":6264,"count":12,"componentType":5125,"type":"SCALAR"},{"bufferView":2,"byteOffset":6312,"count":414,"componentType":5125,"type":"SCALAR"},{"bufferView":3,"byteOffset":0,"count":449,"componentType":5126,"type":"VEC3","min":[-0.0711781233549118,-0.011250019073486328,0],"max":[0.036835815757513046,0.0111914724111557,0.093732938170433044]},{"bufferView":3,"byteOffset":5388,"count":13,"componentType":5126,"type":"VEC3","min":[-0.048283245414495468,-0.011250019073486328,0.047489851713180542],"max":[0.0012467615306377411,-0.011250019073486328,0.071971490979194641]},{"bufferView":3,"byteOffset":5544,"count":6,"componentType":5126,"type":"VEC3","min":[-0.018474575132131577,-0.011250019073486328,0.011560767889022827],"max":[0.024254972115159035,-0.011250019073486328,0.021081402897834778]},{"bufferView":3,"byteOffset":5616,"count":7,"componentType":5126,"type":"VEC3","min":[-0.0711781233549118,-0.011250019073486328,0.093732938170433044],"max":[0.027088504284620285,0.0111914724111557,0.093732938170433044]},{"bufferView":3,"byteOffset":5700,"count":4,"componentType":5126,"type":"VEC3","min":[-0.023234885185956955,-0.011250019073486328,0.044089622795581818],"max":[-0.023234885185956955,0.0111914724111557,0.066757798194885254]},{"bufferView":3,"byteOffset":5748,"count":26,"componentType":5126,"type":"VEC3","min":[-0.045676399022340775,-0.011250019073486328,0.056103765964508057],"max":[-0.023234885185956955,0.0111914724111557,0.066757798194885254]},{"bufferView":3,"byteOffset":6060,"count":28,"componentType":5126,"type":"VEC3","min":[-0.0055536963045597076,-0.011250019073486328,0.009180605411529541],"max":[0.0028335414826869965,0.0111914724111557,0.015414364635944366]},{"bufferView":3,"byteOffset":6396,"count":38,"componentType":5126,"type":"VEC3","min":[-0.061317455023527145,-0.011250019073486328,0.06041070818901062],"max":[-0.023234885185956955,0.0111914724111557,0.079565331339836121]},{"bufferView":3,"byteOffset":6852,"count":140,"componentType":5126,"type":"VEC3","min":[-0.0711781233549118,-0.011250019073486328,0.022101476788520813],"max":[0.027088504284620285,-0.011250019073486328,0.093732938170433044]},{"bufferView":3,"byteOffset":8532,"count":98,"componentType":5126,"type":"VEC3","min":[-0.018474575132131577,-0.011250019073486328,0],"max":[0.036835815757513046,-0.011250019073486328,0.02584172785282135]},{"bufferView":4,"byteOffset":0,"count":38,"componentType":5126,"type":"VEC2"},{"bufferView":4,"byteOffset":304,"count":140,"componentType":5126,"type":"VEC2"},{"bufferView":4,"byteOffset":1424,"count":98,"componentType":5126,"type":"VEC2"},{"bufferView":5,"byteOffset":0,"count":1944,"componentType":5125,"type":"SCALAR"},{"bufferView":5,"byteOffset":7776,"count":15,"componentType":5125,"type":"SCALAR"},{"bufferView":5,"byteOffset":7836,"count":6,"componentType":5125,"type":"SCALAR"},{"bufferView":5,"byteOffset":7860,"count":18,"componentType":5125,"type":"SCALAR"},{"bufferView":5,"byteOffset":7932,"count":6,"componentType":5125,"type":"SCALAR"},{"bufferView":5,"byteOffset":7956,"count":72,"componentType":5125,"type":"SCALAR"},{"bufferView":5,"byteOffset":8244,"count":78,"componentType":5125,"type":"SCALAR"},{"bufferView":5,"byteOffset":8556,"count":108,"componentType":5125,"type":"SCALAR"},{"bufferView":5,"byteOffset":8988,"count":420,"componentType":5125,"type":"SCALAR"},{"bufferView":5,"byteOffset":10668,"count":291,"componentType":5125,"type":"SCALAR"},{"bufferView":6,"byteOffset":0,"count":297,"componentType":5126,"type":"VEC3","min":[0.031168784946203232,-0.011250019073486328,0.0087272375822067261],"max":[0.14156289398670197,0.0111914724111557,0.095999777317047119]},{"bufferView":6,"byteOffset":3564,"count":18,"componentType":5126,"type":"VEC3","min":[0.055877100676298141,-0.011250019073486328,0.056217089295387268],"max":[0.099626734852790833,-0.011250019073486328,0.093732938170433044]},{"bufferView":6,"byteOffset":3780,"count":6,"componentType":5126,"type":"VEC3","min":[0.10064677894115448,-0.011250019073486328,0.083305582404136658],"max":[0.10302695631980896,0.0111914724111557,0.083758950233459473]},{"bufferView":6,"byteOffset":3852,"count":26,"componentType":5126,"type":"VEC3","min":[0.093506306409835815,-0.011250019073486328,0.079451993107795715],"max":[0.10064677894115448,0.0111914724111557,0.083758950233459473]},{"bufferView":6,"byteOffset":4164,"count":15,"componentType":5126,"type":"VEC3","min":[0.031168784946203232,-0.011250019073486328,0.0087272375822067261],"max":[0.058370616286993027,-0.011250019073486328,0.091126114130020142]},{"bufferView":6,"byteOffset":4344,"count":8,"componentType":5126,"type":"VEC3","min":[0.031168784946203232,-0.011250019073486328,0.049643322825431824],"max":[0.046243127435445786,0.0111914724111557,0.091126114130020142]},{"bufferView":6,"byteOffset":4440,"count":17,"componentType":5126,"type":"VEC3","min":[0.065397754311561584,-0.011250019073486328,0.056217089295387268],"max":[0.097586587071418762,-0.011250019073486328,0.082965552806854248]},{"bufferView":6,"byteOffset":4644,"count":54,"componentType":5126,"type":"VEC3","min":[0.069364681839942932,-0.011250019073486328,0.054176956415176392],"max":[0.10529378056526184,-0.011250019073486328,0.079451993107795715]},{"bufferView":6,"byteOffset":5292,"count":22,"componentType":5126,"type":"VEC3","min":[0.10302695631980896,-0.011250019073486328,0.064150959253311157],"max":[0.11753462255001068,0.0111914724111557,0.083305582404136658]},{"bufferView":6,"byteOffset":5556,"count":16,"componentType":5126,"type":"VEC3","min":[0.067777901887893677,-0.011250019073486328,0.0710647702217102],"max":[0.075598433613777161,0.0111914724111557,0.078318580985069275]},{"bufferView":6,"byteOffset":5748,"count":40,"componentType":5126,"type":"VEC3","min":[0.0848923921585083,-0.011250019073486328,0.085572406649589539],"max":[0.10268694162368774,0.0111914724111557,0.095999777317047119]},{"bufferView":6,"byteOffset":6228,"count":68,"componentType":5126,"type":"VEC3","min":[0.055877100676298141,-0.011250019073486328,0.024028271436691284],"max":[0.14156289398670197,-0.011250019073486328,0.095999777317047119]},{"bufferView":6,"byteOffset":7044,"count":4,"componentType":5126,"type":"VEC3","min":[0.11753462255001068,-0.011250019073486328,0.024028271436691284],"max":[0.11753462255001068,0.0111914724111557,0.064150959253311157]},{"bufferView":6,"byteOffset":7092,"count":8,"componentType":5126,"type":"VEC3","min":[0.031168784946203232,-0.011250019073486328,0.0087272375822067261],"max":[0.046243127435445786,0.0111914724111557,0.049643322825431824]},{"bufferView":6,"byteOffset":7188,"count":24,"componentType":5126,"type":"VEC3","min":[0.065397754311561584,-0.011250019073486328,0.057010486721992493],"max":[0.0684579610824585,0.0111914724111557,0.0710647702217102]},{"bufferView":6,"byteOffset":7476,"count":13,"componentType":5126,"type":"VEC3","min":[0.06641782820224762,-0.011250019073486328,0.06857125461101532],"max":[0.099173352122306824,-0.011250019073486328,0.083645597100257874]},{"bufferView":6,"byteOffset":7632,"count":14,"componentType":5126,"type":"VEC3","min":[0.055877100676298141,-0.011250019073486328,0.080472052097320557],"max":[0.072991594672203064,-0.011250019073486328,0.093732938170433044]},{"bufferView":6,"byteOffset":7800,"count":4,"componentType":5126,"type":"VEC3","min":[0.11753462255001068,-0.011250019073486328,0.093732938170433044],"max":[0.14156289398670197,0.0111914724111557,0.093732938170433044]},{"bufferView":7,"byteOffset":0,"count":15,"componentType":5126,"type":"VEC2"},{"bufferView":7,"byteOffset":120,"count":8,"componentType":5126,"type":"VEC2"},{"bufferView":7,"byteOffset":184,"count":17,"componentType":5126,"type":"VEC2"},{"bufferView":7,"byteOffset":320,"count":54,"componentType":5126,"type":"VEC2"},{"bufferView":7,"byteOffset":752,"count":22,"componentType":5126,"type":"VEC2"},{"bufferView":7,"byteOffset":928,"count":16,"componentType":5126,"type":"VEC2"},{"bufferView":7,"byteOffset":1056,"count":40,"componentType":5126,"type":"VEC2"},{"bufferView":7,"byteOffset":1376,"count":68,"componentType":5126,"type":"VEC2"},{"bufferView":7,"byteOffset":1920,"count":4,"componentType":5126,"type":"VEC2"},{"bufferView":7,"byteOffset":1952,"count":8,"componentType":5126,"type":"VEC2"},{"bufferView":7,"byteOffset":2016,"count":24,"componentType":5126,"type":"VEC2"},{"bufferView":7,"byteOffset":2208,"count":13,"componentType":5126,"type":"VEC2"},{"bufferView":7,"byteOffset":2312,"count":14,"componentType":5126,"type":"VEC2"},{"bufferView":7,"byteOffset":2424,"count":4,"componentType":5126,"type":"VEC2"},{"bufferView":8,"byteOffset":0,"count":1209,"componentType":5125,"type":"SCALAR"},{"bufferView":8,"byteOffset":4836,"count":18,"componentType":5125,"type":"SCALAR"},{"bufferView":8,"byteOffset":4908,"count":12,"componentType":5125,"type":"SCALAR"},{"bufferView":8,"byteOffset":4956,"count":72,"componentType":5125,"type":"SCALAR"},{"bufferView":8,"byteOffset":5244,"count":39,"componentType":5125,"type":"SCALAR"},{"bufferView":8,"byteOffset":5400,"count":18,"componentType":5125,"type":"SCALAR"},{"bufferView":8,"byteOffset":5472,"count":45,"componentType":5125,"type":"SCALAR"},{"bufferView":8,"byteOffset":5652,"count":156,"componentType":5125,"type":"SCALAR"},{"bufferView":8,"byteOffset":6276,"count":60,"componentType":5125,"type":"SCALAR"},{"bufferView":8,"byteOffset":6516,"count":42,"componentType":5125,"type":"SCALAR"},{"bufferView":8,"byteOffset":6684,"count":114,"componentType":5125,"type":"SCALAR"},{"bufferView":8,"byteOffset":7140,"count":198,"componentType":5125,"type":"SCALAR"},{"bufferView":8,"byteOffset":7932,"count":6,"componentType":5125,"type":"SCALAR"},{"bufferView":8,"byteOffset":7956,"count":18,"componentType":5125,"type":"SCALAR"},{"bufferView":8,"byteOffset":8028,"count":66,"componentType":5125,"type":"SCALAR"},{"bufferView":8,"byteOffset":8292,"count":33,"componentType":5125,"type":"SCALAR"},{"bufferView":8,"byteOffset":8424,"count":36,"componentType":5125,"type":"SCALAR"},{"bufferView":8,"byteOffset":8568,"count":6,"componentType":5125,"type":"SCALAR"}],"bufferViews":[{"buffer":0,"byteOffset":0,"byteLength":7344,"byteStride":12,"target":34962},{"buffer":0,"byteOffset":7344,"byteLength":1120,"byteStride":8,"target":34962},{"buffer":0,"byteOffset":8464,"byteLength":7968,"target":34963},{"buffer":0,"byteOffset":16432,"byteLength":9708,"byteStride":12,"target":34962},{"buffer":0,"byteOffset":26140,"byteLength":2208,"byteStride":8,"target":34962},{"buffer":0,"byteOffset":28348,"byteLength":11832,"target":34963},{"buffer":0,"byteOffset":40180,"byteLength":7848,"byteStride":12,"target":34962},{"buffer":0,"byteOffset":48028,"byteLength":2456,"byteStride":8,"target":34962},{"buffer":0,"byteOffset":50484,"byteLength":8592,"target":34963}],"buffers":[{"byteLength":59076,"uri":"ekushei.bin"}]}