{"asset":{"generator":"3D Builder","version":"2.0"},"scene":0,"scenes":[{"nodes":[0,1,2,3]}],"nodes":[{"mesh":0,"matrix":[1,0,0,0,0,-1.1920928955078125E-7,-0.99999988079071045,0,0,0.99999988079071045,-1.1920928955078125E-7,0,-0.026368496939539909,0.16412277519702911,-0.23723484575748444,1]},{"mesh":1,"matrix":[1,0,0,0,0,-1.1920928955078125E-7,-0.99999988079071045,0,0,0.99999988079071045,-1.1920928955078125E-7,0,-0.026368496939539909,0.16412277519702911,-0.23723484575748444,1]},{"mesh":2,"matrix":[1,0,0,0,0,-1.1920928955078125E-7,-0.99999988079071045,0,0,0.99999988079071045,-1.1920928955078125E-7,0,-0.026368496939539909,0.16412277519702911,-0.26101928949356079,1]},{"mesh":3,"matrix":[1,0,0,0,0,-1.1920928955078125E-7,-0.99999988079071045,0,0,0.99999988079071045,-1.1920928955078125E-7,0,-0.026368496939539909,0.16412277519702911,-0.23723484575748444,1]}],"meshes":[{"primitives":[{"attributes":{"POSITION":0,"COLOR_0":1},"mode":4,"indices":2}]},{"primitives":[{"attributes":{"POSITION":3,"TEXCOORD_0":4},"mode":4,"indices":5,"material":0}]},{"primitives":[{"attributes":{"POSITION":6,"TEXCOORD_0":7},"mode":4,"indices":8,"material":1}]},{"primitives":[{"attributes":{"POSITION":9,"TEXCOORD_0":10},"mode":4,"indices":11,"material":1}]}],"accessors":[{"bufferView":0,"byteOffset":0,"count":887,"componentType":5126,"type":"VEC3","min":[-0.32325407862663269,-0.25997474789619446,-0.14406974613666534],"max":[-0.09009745717048645,-0.19071030616760254,0.20825490355491638]},{"bufferView":1,"byteOffset":0,"count":887,"componentType":5121,"type":"VEC4","normalized":true},{"bufferView":2,"byteOffset":0,"count":5310,"componentType":5125,"type":"SCALAR"},{"bufferView":3,"byteOffset":0,"count":1045,"componentType":5126,"type":"VEC3","min":[-0.057966753840446472,-0.25997474789619446,-0.15627327561378479],"max":[0.17233674228191376,-0.19158989191055298,0.18063387274742126]},{"bufferView":4,"byteOffset":0,"count":1045,"componentType":5126,"type":"VEC2"},{"bufferView":5,"byteOffset":0,"count":5310,"componentType":5125,"type":"SCALAR"},{"bufferView":6,"byteOffset":0,"count":2303,"componentType":5126,"type":"VEC3","min":[0.12333313375711441,-0.28375941514968872,-0.1641228199005127],"max":[0.6095927357673645,-0.22441461682319641,0.17848798632621765]},{"bufferView":7,"byteOffset":0,"count":2303,"componentType":5126,"type":"VEC2"},{"bufferView":8,"byteOffset":0,"count":11880,"componentType":5125,"type":"SCALAR"},{"bufferView":9,"byteOffset":0,"count":958,"componentType":5126,"type":"VEC3","min":[-0.55685573816299438,-0.25997474789619446,-0.14916664361953735],"max":[-0.32515531778335571,-0.20063020288944244,0.20121033489704132]},{"bufferView":10,"byteOffset":0,"count":958,"componentType":5126,"type":"VEC2"},{"bufferView":11,"byteOffset":0,"count":5040,"componentType":5125,"type":"SCALAR"}],"materials":[{"pbrMetallicRoughness":{"baseColorFactor":[1,1,1,1],"metallicFactor":1,"roughnessFactor":1,"baseColorTexture":{"index":0,"texCoord":0},"metallicRoughnessTexture":{"index":1,"texCoord":0}},"alphaMode":"OPAQUE"},{"pbrMetallicRoughness":{"baseColorFactor":[1,1,1,1],"metallicFactor":1,"roughnessFactor":1,"baseColorTexture":{"index":0,"texCoord":0}},"alphaMode":"OPAQUE"}],"textures":[{"source":0,"sampler":0},{"source":1,"sampler":0}],"images":[{"uri":"texture_0_6195987693227547908.png"},{"uri":"texture_4_10685915185523300778.png"}],"samplers":[{"magFilter":9729,"wrapS":10497,"wrapT":10497}],"bufferViews":[{"buffer":0,"byteOffset":0,"byteLength":10644,"byteStride":12,"target":34962},{"buffer":0,"byteOffset":10644,"byteLength":3548,"byteStride":4,"target":34962},{"buffer":0,"byteOffset":14192,"byteLength":21240,"target":34963},{"buffer":0,"byteOffset":35432,"byteLength":12540,"byteStride":12,"target":34962},{"buffer":0,"byteOffset":47972,"byteLength":8360,"byteStride":8,"target":34962},{"buffer":0,"byteOffset":56332,"byteLength":21240,"target":34963},{"buffer":0,"byteOffset":77572,"byteLength":27636,"byteStride":12,"target":34962},{"buffer":0,"byteOffset":105208,"byteLength":18424,"byteStride":8,"target":34962},{"buffer":0,"byteOffset":123632,"byteLength":47520,"target":34963},{"buffer":0,"byteOffset":171152,"byteLength":11496,"byteStride":12,"target":34962},{"buffer":0,"byteOffset":182648,"byteLength":7664,"byteStride":8,"target":34962},{"buffer":0,"byteOffset":190312,"byteLength":20160,"target":34963}],"buffers":[{"byteLength":210472,"uri":"ekushe.bin"}]}